<?xml version="1.0" standalone="no"?><!DOCTYPE svg PUBLIC "-//W3C//DTD SVG 1.1//EN" "http://www.w3.org/Graphics/SVG/1.1/DTD/svg11.dtd"><svg t="1629334960864" class="icon" viewBox="0 0 1024 1024" version="1.1" xmlns="http://www.w3.org/2000/svg" p-id="1396" xmlns:xlink="http://www.w3.org/1999/xlink" width="200" height="200"><defs><style type="text/css"></style></defs><path d="M435.2 717.824c-3.072-6.144-24.576-11.264-46.08-11.264-38.912 0-41.984-3.072-96.256-83.968l-56.32-82.944-3.072 80.896-3.072 80.896h-92.16V353.28l41.984-3.072 41.984-3.072 55.296 84.992 55.296 83.968 5.12-80.896 5.12-81.92h92.16l5.12 151.552 5.12 152.576 50.176-152.576c27.648-82.944 54.272-157.696 59.392-163.84 11.264-14.336 65.536-18.432 72.704-5.12 3.072 4.096-23.552 92.16-58.368 196.608l-62.464 189.44-32.768 3.072c-17.408 2.048-34.816-2.048-38.912-7.168zM612.352 700.416c-4.096-3.072 19.456-82.944 52.224-176.128l59.392-171.008 40.96-3.072c24.576-2.048 45.056 2.048 51.2 10.24 18.432 21.504 116.736 318.464 111.616 332.8-3.072 8.192-22.528 13.312-47.104 13.312-37.888 0-43.008-3.072-52.224-30.72-10.24-27.648-15.36-30.72-55.296-30.72-38.912 0-47.104 4.096-58.368 28.672-11.264 22.528-21.504 28.672-54.272 30.72-23.552 2.048-45.056 0-48.128-4.096z m172.032-163.84c-3.072-9.216-6.144-21.504-6.144-27.648 0-16.384-20.48 14.336-20.48 31.744 0 6.144 7.168 12.288 16.384 12.288 11.264 0 14.336-5.12 10.24-16.384z" fill="#8a8a8a" p-id="1397"></path></svg>